<svg width="30" height="30" viewBox="0 0 30 30" fill="none" xmlns="http://www.w3.org/2000/svg">
<g filter="url(#filter0_d_103_228)">
<path fill-rule="evenodd" clip-rule="evenodd" d="M8.85584 2.61739C10.1901 1.72585 11.7588 1.25 13.3635 1.25H13.3636C15.5154 1.25014 17.579 2.105 19.1005 3.62655C20.6221 5.14811 21.477 7.21174 21.4771 9.36355V9.36359C21.4771 10.9683 21.0012 12.537 20.1097 13.8713C19.9532 14.1054 19.7852 14.3305 19.6065 14.5459L24.5302 19.4697C24.8231 19.7626 24.8231 20.2374 24.5302 20.5303C24.2373 20.8232 23.7625 20.8232 23.4696 20.5303L18.5458 15.6065C17.9234 16.1232 17.2239 16.5467 16.4684 16.8596C14.9859 17.4737 13.3545 17.6344 11.7806 17.3213C10.2067 17.0082 8.76104 16.2355 7.62633 15.1008C6.49162 13.9661 5.71888 12.5204 5.40581 10.9465C5.09275 9.37259 5.25342 7.74122 5.86752 6.25866C6.48162 4.77609 7.52156 3.50892 8.85584 2.61739ZM13.3635 2.75C12.0554 2.75001 10.7768 3.13789 9.68919 3.86459C8.60159 4.5913 7.75391 5.6242 7.25334 6.83268C6.75277 8.04116 6.6218 9.37093 6.87699 10.6538C7.13218 11.9368 7.76206 13.1152 8.68699 14.0401C9.61192 14.965 10.7903 15.5949 12.0733 15.8501C13.3562 16.1053 14.6859 15.9743 15.8944 15.4738C17.1029 14.9732 18.1358 14.1255 18.8625 13.0379C19.5892 11.9503 19.9771 10.6717 19.9771 9.36364M13.3635 2.75C15.1175 2.75012 16.7996 3.44695 18.0399 4.68721C19.2801 5.92748 19.977 7.6096 19.9771 9.36359" fill="#E45858"/>
<path d="M13.3635 2.75C12.0554 2.75001 10.7768 3.13789 9.68919 3.86459C8.60159 4.5913 7.75391 5.6242 7.25334 6.83268C6.75277 8.04116 6.6218 9.37093 6.87699 10.6538C7.13218 11.9368 7.76206 13.1152 8.68699 14.0401C9.61192 14.965 10.7903 15.5949 12.0733 15.8501C13.3562 16.1053 14.6859 15.9743 15.8944 15.4738C17.1029 14.9732 18.1358 14.1255 18.8625 13.0379C19.5892 11.9503 19.9771 10.6717 19.9771 9.36364M13.3635 2.75C15.1175 2.75012 16.7996 3.44695 18.0399 4.68721C19.2801 5.92748 19.977 7.6096 19.9771 9.36359M13.3635 1.25C11.7588 1.25 10.1901 1.72585 8.85584 2.61739C7.52156 3.50892 6.48162 4.77609 5.86752 6.25866C5.25342 7.74122 5.09275 9.37259 5.40581 10.9465C5.71888 12.5204 6.49162 13.9661 7.62633 15.1008C8.76104 16.2355 10.2067 17.0082 11.7806 17.3213C13.3545 17.6344 14.9859 17.4737 16.4684 16.8596C17.2239 16.5467 17.9234 16.1232 18.5458 15.6065L23.4696 20.5303C23.7625 20.8232 24.2373 20.8232 24.5302 20.5303C24.8231 20.2374 24.8231 19.7626 24.5302 19.4697L19.6065 14.5459C19.7852 14.3305 19.9532 14.1054 20.1097 13.8713C21.0012 12.537 21.4771 10.9683 21.4771 9.36359V9.36355C21.477 7.21174 20.6221 5.14811 19.1005 3.62655C17.579 2.105 15.5154 1.25014 13.3636 1.25H13.3635Z" stroke="black" stroke-miterlimit="10" stroke-linecap="round"/>
</g>
<defs>
<filter id="filter0_d_103_228" x="0.749908" y="0.75" width="28.5" height="28.5" filterUnits="userSpaceOnUse" color-interpolation-filters="sRGB">
<feFlood flood-opacity="0" result="BackgroundImageFix"/>
<feColorMatrix in="SourceAlpha" type="matrix" values="0 0 0 0 0 0 0 0 0 0 0 0 0 0 0 0 0 0 127 0" result="hardAlpha"/>
<feOffset dy="4"/>
<feGaussianBlur stdDeviation="2"/>
<feComposite in2="hardAlpha" operator="out"/>
<feColorMatrix type="matrix" values="0 0 0 0 0 0 0 0 0 0 0 0 0 0 0 0 0 0 0.25 0"/>
<feBlend mode="normal" in2="BackgroundImageFix" result="effect1_dropShadow_103_228"/>
<feBlend mode="normal" in="SourceGraphic" in2="effect1_dropShadow_103_228" result="shape"/>
</filter>
</defs>
</svg>
